<?xml version="1.0" encoding="UTF-8" standalone="no"?>
<svg
   xmlns:dc="http://purl.org/dc/elements/1.1/"
   xmlns:cc="http://creativecommons.org/ns#"
   xmlns:rdf="http://www.w3.org/1999/02/22-rdf-syntax-ns#"
   xmlns:svg="http://www.w3.org/2000/svg"
   xmlns="http://www.w3.org/2000/svg"
   viewBox="0 0 24 24"
   height="24"
   width="24"
   id="mdi-radiator-disabled"
   version="1.1">
  <metadata
     id="metadata4197">
    <rdf:RDF>
      <cc:Work
         rdf:about="">
        <dc:format>image/svg+xml</dc:format>
        <dc:type
           rdf:resource="http://purl.org/dc/dcmitype/StillImage" />
        <dc:title></dc:title>
      </cc:Work>
    </rdf:RDF>
  </metadata>
  <defs
     id="defs4195" />
  <path
     d="m 13.351547,16.779689 0,2.285428 3.42814,0 0,3.428139 2.285428,0 0,-3.428139 3.428141,0 0,-2.285428 -3.428141,0 0,-3.428141 -2.285428,0 0,3.428141 M 5.6035156,9.9980469 A 1.6,1.6 0 0 0 4.0039062,11.597656 l 0,6.400391 1.5996094,0 0,-1.601563 6.4960934,0 a 6.0275984,6.0275984 0 0 1 0.873047,-1.910156 0.8,0.8 0 0 1 -0.167968,-0.488281 l 0,-1.601563 a 0.8,0.8 0 0 1 0.798828,-0.798828 0.8,0.8 0 0 1 0.800781,0.798828 l 0,0.640625 a 6.0275984,6.0275984 0 0 1 1.623047,-0.828125 0.8,0.8 0 0 1 0.777344,-0.611328 0.8,0.8 0 0 1 0.636718,0.31836 6.0275984,6.0275984 0 0 1 0.480469,-0.02149 6.0275984,6.0275984 0 0 1 2.082031,0.378907 l 0,-0.675782 A 1.6,1.6 0 0 0 18.404297,9.9980469 l -12.8007814,0 z M 7.203125,11.597656 a 0.8,0.8 0 0 1 0.8007812,0.798828 l 0,1.601563 A 0.8,0.8 0 0 1 7.203125,14.796875 0.8,0.8 0 0 1 6.4042969,13.998047 l 0,-1.601563 A 0.8,0.8 0 0 1 7.203125,11.597656 Z m 3.201172,0 a 0.8,0.8 0 0 1 0.798828,0.798828 l 0,1.601563 a 0.8,0.8 0 0 1 -0.798828,0.798828 0.8,0.8 0 0 1 -0.8007814,-0.798828 l 0,-1.601563 A 0.8,0.8 0 0 1 10.404297,11.597656 Z M 8.7599997,2.7735629 7.624,4.5255627 l 1.1359997,1.768 -0.008,0 L 7.16,8.7735628 5.7760002,8.0535628 6.912,6.2855627 5.7760002,4.5255627 7.376,2.0455629 l 1.3839997,0.728 m 4.8000013,-0.088 -1.136,1.7679998 1.136,1.76 -0.008,0.008 -1.592,2.4720001 -1.384001,-0.72 1.136001,-1.7600001 -1.136001,-1.76 1.600001,-2.4799998 1.384,0.712 m 4.84,0 -1.152,1.7679998 1.152,1.76 0,0.008 -1.6,2.4720001 -1.4,-0.72 1.136,-1.7600001 -1.136,-1.76 1.6,-2.4799998 1.4,0.712"
     id="path4773" />
</svg>
