<?xml version="1.0" encoding="UTF-8" standalone="no"?>
<svg
   xmlns:dc="http://purl.org/dc/elements/1.1/"
   xmlns:cc="http://creativecommons.org/ns#"
   xmlns:rdf="http://www.w3.org/1999/02/22-rdf-syntax-ns#"
   xmlns:svg="http://www.w3.org/2000/svg"
   xmlns="http://www.w3.org/2000/svg"
   viewBox="0 0 24 24"
   height="24"
   width="24"
   id="mdi-radiator-disabled"
   version="1.1">
  <metadata
     id="metadata4197">
    <rdf:RDF>
      <cc:Work
         rdf:about="">
        <dc:format>image/svg+xml</dc:format>
        <dc:type
           rdf:resource="http://purl.org/dc/dcmitype/StillImage" />
        <dc:title></dc:title>
      </cc:Work>
    </rdf:RDF>
  </metadata>
  <defs
     id="defs4195" />
  <path
     d="m 13.351547,16.779689 0,2.285428 c 3.288165,0 5.870232,0 9.141709,0 l 0,-2.285428 M 5.6035156,9.9980469 C 4.7201652,9.9982625 4.004122,10.714306 4.0039062,11.597656 l 0,6.400391 1.5996094,0 0,-1.601563 6.4960934,0 c 0.176992,-0.682903 0.472492,-1.329434 0.873047,-1.910156 -0.108421,-0.13972 -0.167489,-0.311429 -0.167968,-0.488281 l 0,-1.601563 c 6.45e-4,-0.440913 0.357915,-0.798183 0.798828,-0.798828 0.441675,-4.32e-4 0.800134,0.357153 0.800781,0.798828 l 0,0.640625 c 0.495926,-0.356692 1.043193,-0.635924 1.623047,-0.828125 0.08705,-0.358706 0.408225,-0.611287 0.777344,-0.611328 0.250363,6.42e-4 0.485987,0.118454 0.636718,0.31836 0.159807,-0.01355 0.320091,-0.02072 0.480469,-0.02149 0.710925,0.0025 1.415797,0.13081 2.082031,0.378907 l 0,-0.675782 C 20.003687,10.714303 19.287645,9.9982627 18.404297,9.9980469 Z M 7.203125,11.597656 c 0.4416755,-4.32e-4 0.8001344,0.357153 0.8007812,0.798828 l 0,1.601563 C 8.0032594,14.439722 7.6448005,14.797307 7.203125,14.796875 6.7622121,14.79623 6.4049424,14.43896 6.4042969,13.998047 l 0,-1.601563 c 6.455e-4,-0.440913 0.3579152,-0.798183 0.7988281,-0.798828 z m 3.201172,0 c 0.440913,6.45e-4 0.798183,0.357915 0.798828,0.798828 l 0,1.601563 C 11.20248,14.43896 10.84521,14.79623 10.404297,14.796875 9.9626215,14.797307 9.6041624,14.439722 9.6035156,13.998047 l 0,-1.601563 c 6.468e-4,-0.441675 0.3591059,-0.79926 0.8007814,-0.798828 z M 8.7599997,2.7735629 7.624,4.5255627 l 1.1359997,1.768 -0.008,0 L 7.16,8.7735628 5.7760002,8.0535628 6.912,6.2855627 5.7760002,4.5255627 7.376,2.0455629 l 1.3839997,0.728 m 4.8000013,-0.088 -1.136,1.7679998 1.136,1.76 -0.008,0.008 -1.592,2.4720001 -1.384001,-0.72 1.136001,-1.7600001 -1.136001,-1.76 1.600001,-2.4799998 1.384,0.712 m 4.84,0 -1.152,1.7679998 1.152,1.76 0,0.008 -1.6,2.4720001 -1.4,-0.72 1.136,-1.7600001 -1.136,-1.76 1.6,-2.4799998 1.4,0.712"
     id="path4773" />
</svg>
