<?xml version="1.0" encoding="UTF-8" standalone="no"?> <svg xmlns="http://www.w3.org/2000/svg" xmlns:xlink="http://www.w3.org/1999/xlink" version="1.1" id="manual-mode" width="24" height="24" viewBox="0 0 24 24"> <path id="path3411" d="M 3.1816406 1 C 1.9782966 1 1.0097656 1.9685305 1.0097656 3.171875 L 1.0097656 18.828125 C 1.0097656 20.031469 1.9782966 21 3.1816406 21 L 10 21 L 10 18.777344 L 3.2324219 18.777344 L 3.2324219 3.2226562 L 18.787109 3.2226562 L 18.787109 10 L 21.009766 10 L 21.009766 3.171875 C 21.009766 1.9685305 20.041236 1 18.837891 1 L 3.1816406 1 z M 3.9667969 4.7597656 L 3.9667969 7.0019531 L 7.2949219 7.0019531 L 7.2949219 4.7597656 L 3.9667969 4.7597656 z M 8.40625 4.7597656 L 8.40625 7.0019531 L 11.734375 7.0019531 L 11.734375 4.7597656 L 8.40625 4.7597656 z M 12.84375 4.7597656 L 12.84375 7.0019531 L 16.171875 7.0019531 L 16.171875 4.7597656 L 12.84375 4.7597656 z M 3.9667969 8.0976562 L 3.9667969 10.339844 L 7.2949219 10.339844 L 7.2949219 8.0976562 L 3.9667969 8.0976562 z M 8.40625 8.0976562 L 8.40625 10.339844 L 11.734375 10.339844 L 11.734375 8.0976562 L 8.40625 8.0976562 z M 16.679688 10.90625 A 0.68193749 0.68193749 0 0 0 15.998047 11.587891 L 15.998047 15.908203 L 15.544922 15.908203 L 15.544922 12.722656 A 0.68193749 0.68193749 0 0 0 14.863281 12.041016 A 0.68193749 0.68193749 0 0 0 14.179688 12.722656 L 14.179688 18.140625 C 14.179687 18.140625 12.239026 17.026984 12.222656 17.021484 C 12.140824 16.972384 12.047419 16.945312 11.949219 16.945312 C 11.812831 16.945312 11.688044 16.994741 11.589844 17.082031 C 11.573477 17.087486 11 17.648438 11 17.648438 L 14.568359 21.271484 C 14.9066 21.620636 15.370333 21.816406 15.861328 21.816406 L 19.183594 21.816406 A 1.8166815 1.8166815 0 0 0 21 20 L 21 13.404297 A 0.68193749 0.68193749 0 0 0 20.318359 12.722656 A 0.68193749 0.68193749 0 0 0 19.636719 13.404297 L 19.636719 15.908203 L 19.183594 15.908203 L 19.183594 12.041016 A 0.68193749 0.68193749 0 0 0 18.501953 11.359375 C 18.120068 11.359375 17.820312 11.664587 17.820312 12.041016 L 17.820312 15.908203 L 17.361328 15.908203 L 17.361328 11.587891 C 17.361328 11.211461 17.061573 10.90625 16.679688 10.90625 z M 3.9667969 11.435547 L 3.9667969 13.675781 L 7.2949219 13.675781 L 7.2949219 11.435547 L 3.9667969 11.435547 z M 8.40625 11.435547 L 8.40625 13.675781 L 11.734375 13.675781 L 11.734375 11.435547 L 8.40625 11.435547 z " style="fill:#000000;opacity:1" /></svg>